<svg width="562" height="131" viewBox="0 0 562 131" fill="none" xmlns="http://www.w3.org/2000/svg">
<g clip-path="url(#clip0_974_541)">
<path d="M450.427 27.6522C444.911 36.0093 440.36 53.6827 437.188 79.4392C436.222 86.5633 434.705 94.0985 433.74 96.0165C431.809 99.5786 421.465 109.58 419.535 109.58C415.811 109.443 412.363 102.182 412.363 94.3725C412.363 92.3174 414.845 86.4263 417.88 81.3572C427.671 64.6429 434.153 39.9824 430.43 33.1323C428.085 28.7482 422.982 29.2962 418.431 34.5023C410.432 44.0925 405.605 61.0808 405.191 81.0832C405.054 94.9205 403.537 98.7566 395.951 106.018C387.538 113.964 385.056 105.744 390.159 86.5633C392.228 78.8912 392.365 76.6991 390.848 76.1511C388.78 75.3291 387.401 76.8361 383.401 84.9193C379.264 93.1395 370.299 105.059 366.713 106.977C364.369 108.073 363.541 108.073 362.576 106.703C361.473 104.785 361.749 101.497 365.196 86.7003C366.3 81.2202 366.989 76.2881 366.438 75.8771C365.886 75.3291 363.955 75.6031 362.162 76.4251C359.68 77.5211 358.439 79.7132 357.197 85.1933C354.853 96.1535 353.198 99.5786 349.336 102.182C346.164 104.1 345.613 104.1 343.682 102.182C340.648 99.1676 340.234 87.7964 342.441 70.671C343.544 62.4508 344.233 54.7787 343.82 53.8197C342.165 49.7096 338.579 52.9977 335.821 60.9438C331.959 72.041 315.134 104.374 311.686 107.525C308.514 110.402 308.652 112.457 308.376 70.945C308.238 43.8185 307.686 42.3114 300.653 45.1885C296.515 46.9695 296.377 47.2435 297.067 53.2717C298.86 66.8349 288.102 102.456 279.414 111.635C275.828 115.471 273.759 116.43 269.76 116.43C266.312 116.43 264.795 116.978 264.795 118.485C264.795 122.321 273.759 120.951 279.138 116.293C285.482 110.813 288.93 105.059 293.619 92.3174L297.481 81.7682L298.17 95.3315C299.825 126.842 308.927 126.842 325.753 95.1945L333.062 81.4942L333.89 91.6324C335.545 108.347 341.751 113.416 350.853 105.47C355.129 101.771 355.818 101.497 355.818 103.689C355.818 107.799 359.818 112.32 363.541 112.32C365.748 112.32 369.472 109.854 374.437 105.059L382.022 97.7976V102.182C382.022 115.471 388.918 117.526 399.537 107.525C402.985 104.1 406.019 101.36 406.157 101.36C406.295 101.36 407.122 103.826 408.088 106.84C411.122 116.978 419.535 117.526 428.913 108.21L434.291 102.867L434.705 108.621C435.395 118.759 438.705 116.841 447.393 100.949C455.806 85.7413 463.115 75.8771 464.77 77.6581C465.322 78.2062 465.322 83.9603 464.632 90.3994C463.391 103.141 464.219 111.498 466.839 113.69C469.459 115.882 477.183 112.868 482.975 107.251C486.423 103.963 488.216 102.867 488.216 104.237C488.216 107.799 494.284 112.32 498.973 112.32C509.455 112.32 520.626 104.1 525.591 92.4544C527.383 88.3444 529.59 84.9193 530.418 84.9193C533.865 84.9193 535.107 88.6184 535.107 99.4416C535.107 110.539 536.762 115.06 540.761 115.06C545.726 115.06 561.31 100.812 561.31 96.4275C561.31 93.2765 560.069 94.0985 552.76 102.045C548.76 106.429 544.761 109.58 543.106 109.58C540.485 109.58 540.347 109.032 541.175 102.319C541.589 98.4826 542.416 93.1395 542.83 90.6734C543.657 86.5633 543.106 85.6043 537.313 80.3982C531.935 75.4661 530.969 73.6851 530.969 69.575C530.969 63.1359 528.487 61.6288 525.177 65.8759C522.97 68.342 522.694 70.397 523.246 75.3291C524.625 86.0153 524.211 88.0704 519.246 95.4685C514.695 102.319 506.42 108.21 501.456 108.21C494.974 108.21 493.043 98.6196 498.697 94.9205C507.662 89.1664 513.04 76.5621 508.351 72.7261C502.973 68.205 492.905 77.6581 488.905 90.9474C486.423 99.0306 478.286 108.21 473.459 108.21H470.149L471.114 91.7694C472.08 74.3701 471.39 71.219 465.874 71.219C462.15 71.219 453.324 80.1242 447.393 89.7144L442.428 97.9346L443.256 91.7694C443.807 88.3444 446.979 79.9872 450.289 73.2741C453.599 66.4239 457.323 57.1077 458.426 52.5867C461.047 42.4484 461.323 28.6112 458.978 26.2821C456.358 23.6791 452.634 24.3641 450.427 27.6522ZM457.185 37.9274C456.082 46.4215 451.255 61.3548 446.979 69.164L444.083 74.6441L444.911 67.794C446.29 56.1487 450.703 37.3793 453.048 32.8583C456.22 26.6931 458.288 29.0222 457.185 37.9274ZM427.534 38.8864C427.534 45.0515 421.741 62.9989 416.5 72.5891C412.639 79.8502 412.501 79.9872 412.363 75.7401C412.225 66.1499 418.983 41.0784 422.844 36.8313C426.292 32.9953 427.534 33.5433 427.534 38.8864ZM506.145 78.8912C506.145 81.9052 501.042 89.9884 498.559 90.9474C495.939 91.9064 495.939 91.4954 498.559 85.3303C502.007 77.3841 506.145 73.8221 506.145 78.8912Z" fill="#8D4698"/>
<path d="M261.11 36.4823C256.153 41.8234 251.609 55.1076 248.717 72.7743C248.028 77.1567 247.615 77.7045 244.586 77.0197C239.353 76.0611 232.467 81.2652 228.061 89.3453C220.762 103.04 210.572 110.436 203.962 106.875C199.418 104.41 200.244 97.2885 205.477 93.8647C210.159 90.7148 216.356 81.4022 216.356 77.1567C216.356 73.1851 213.188 70.9939 208.919 72.0895C203.686 73.3221 197.627 80.9913 194.873 89.7562C192.394 97.5624 186.886 104.684 184.132 103.725C181.516 102.903 179.175 96.7407 179.312 90.4409C179.312 87.0172 180.139 77.8415 181.102 69.8983C182.066 61.9552 182.617 54.6968 182.204 53.7381C180.827 49.7665 177.109 53.1903 174.217 61.1335C170.086 72.6373 153.699 104.547 150.256 107.56C147.502 110.025 147.502 109.888 147.226 103.314C147.089 99.6166 146.951 85.3737 146.813 71.6787C146.813 44.4255 146.4 42.6451 139.653 44.8363C135.934 46.0689 135.797 46.4797 135.659 56.3402C135.384 68.3918 132.629 80.8544 126.708 95.919C121.337 109.888 115.416 116.462 108.393 116.462C104.95 116.462 103.436 117.009 103.436 118.516C103.436 122.077 112.249 121.118 117.069 117.009C123.541 111.668 126.846 106.327 131.666 93.4538L136.072 81.813L136.761 96.0559C137.449 111.805 140.066 119.201 144.885 119.201C149.154 119.201 156.177 110.436 164.302 95.2342L171.601 81.5391L172.427 91.6735C173.942 107.697 180.139 113.312 188.539 106.19L192.67 102.766L195.562 107.56C198.04 111.805 199.004 112.353 203.962 112.353C209.746 112.353 218.697 108.655 221.726 104.958C224.343 101.945 225.582 102.219 226.546 106.053C228.198 112.627 232.743 111.805 243.346 103.314L249.13 98.658L250.094 102.493C252.848 113.723 260.697 115.777 269.786 107.697C276.258 101.808 282.18 91.8104 279.15 91.8104C278.048 91.8104 275.983 93.8647 274.33 96.3298C270.474 102.63 265.655 106.738 261.799 107.149C258.769 107.56 258.219 106.875 257.117 101.123C256.015 95.2342 256.291 93.5908 261.524 81.95C273.917 53.8751 276.258 32.9216 267.17 32.9216C265.655 32.9216 262.901 34.565 261.11 36.4823ZM268.133 47.3014C267.032 57.1619 257.117 84.2781 256.566 79.211C256.015 74.8285 260.835 51.5469 263.589 44.8363C266.894 37.0301 269.235 38.2627 268.133 47.3014ZM212.224 78.1154C212.224 80.5805 208.506 86.8802 205.477 89.6192C202.86 91.9474 202.585 91.9474 202.585 89.8931C202.585 86.0585 207.955 76.7458 210.159 76.7458C211.26 76.7458 212.224 77.4306 212.224 78.1154ZM248.028 88.2497C248.028 91.9474 246.789 94.0016 241.143 99.2058C232.88 106.875 229.989 107.423 231.503 100.986C232.88 94.8234 236.736 89.2084 241.831 86.1954C247.477 82.6347 248.028 82.9086 248.028 88.2497Z" fill="#8D4698"/>
<path d="M56.4306 25.7869C48.8419 27.12 42.5925 33.0077 39.0772 42.228C34.6133 54.0589 34.3901 65.5565 38.4076 75.1656C40.1931 79.387 44.1548 84.2193 46.5542 84.9969C47.2238 85.1636 47.7818 85.4968 47.7818 85.719C47.7818 86.3855 43.2063 88.9406 38.2402 91.0512C35.6734 92.1621 32.6603 93.7174 31.5443 94.495C29.3124 95.9947 26.9688 99.1051 26.2993 101.382C25.9645 102.438 26.4666 102.105 28.4754 99.8827C31.0979 96.9945 35.506 94.4394 41.7555 92.2732C48.6745 89.8293 52.9152 83.886 53.529 75.8877C53.6406 74.4436 54.2544 74.4436 57.3234 75.8322C60.2807 77.1097 64.354 77.2763 67.1439 76.1099C68.2041 75.6655 69.1527 75.2767 69.2643 75.2767C69.3201 75.2767 69.1527 76.6653 68.8179 78.3316C68.1483 82.2753 68.6505 84.7748 70.4919 86.941C72.3332 89.1627 73.8398 89.8848 80.2008 91.6622C83.1024 92.4954 86.4503 93.7174 87.7337 94.4394C90.9142 96.3279 93.9273 99.7717 94.6527 102.549L95.3223 104.937L96.9963 101.993C98.9492 98.6052 100.791 92.2732 100.791 88.885C100.791 83.164 95.1549 76.3321 84.3299 68.8336C80.982 66.5007 77.2435 63.7235 76.1275 62.6127C74.342 60.9463 74.0072 60.7797 74.0072 61.6684C74.0072 62.2794 73.3934 64.0013 72.668 65.5565C68.8737 73.6659 61.2293 77.4985 55.9284 74.0547C53.5848 72.4995 50.9623 68.7225 49.0093 64.1124C47.7818 61.113 47.5586 59.7244 47.5586 55.2808C47.5586 49.1154 48.6187 44.9496 51.1297 41.5615C52.9152 39.1731 56.6538 36.9513 59.2763 36.7847C60.7829 36.6736 60.8387 36.7847 61.0619 39.4508C61.5641 45.5051 65.2468 51.8371 71.6078 57.2249C73.7282 59.0578 79.7544 63.5569 84.9437 67.2228C100.065 77.9428 103.748 82.1642 104.585 89.8848L104.975 93.3285L105.98 90.1625C107.263 86.1634 107.933 77.3874 107.375 71.9996C105.031 50.0597 88.5706 29.1196 71.1614 25.8425C67.9809 25.2315 59.8901 25.2315 56.4306 25.7869Z" fill="#8D4698"/>
<path d="M121.907 30.521C110.235 12.9787 89.9535 1.37183 66.8881 1.37183C30.7084 1.37183 1.37891 29.9295 1.37891 65.1572C1.37891 100.385 30.7084 128.943 66.8881 128.943C74.7599 128.943 82.3074 127.591 89.2992 125.112" stroke="#8D4698" stroke-width="3"/>
</g>
<defs>
<clipPath id="clip0_974_541">
<rect width="562" height="131" fill="white"/>
</clipPath>
</defs>
</svg>